<svg xmlns="http://www.w3.org/2000/svg"  viewBox="0 0 50 50" width="50px" height="50px"><path d="M 48.808594 22.09375 L 27.90625 1.191406 C 26.378906 -0.335938 23.691406 -0.375 21.992188 1.195313 L 1.191406 22.09375 C -0.398438 23.683594 -0.410156 26.269531 1.191406 28.007813 L 21.992188 48.808594 C 22.761719 49.574219 23.800781 50 24.914063 50 C 26.011719 50 27.066406 49.585938 27.90625 48.808594 L 48.707031 28.007813 C 50.363281 26.347656 50.410156 23.695313 48.808594 22.09375 Z M 32.707031 29.707031 L 25 37.414063 L 17.292969 29.707031 C 16.902344 29.316406 16.902344 28.683594 17.292969 28.292969 C 17.683594 27.902344 18.316406 27.902344 18.707031 28.292969 L 24 33.585938 L 24 14 C 24 13.449219 24.449219 13 25 13 C 25.550781 13 26 13.449219 26 14 L 26 33.585938 L 31.292969 28.292969 C 31.683594 27.902344 32.316406 27.902344 32.707031 28.292969 C 33.097656 28.683594 33.097656 29.316406 32.707031 29.707031 Z"/></svg>