<svg xmlns="http://www.w3.org/2000/svg" version="1.1" xmlns:xlink="http://www.w3.org/1999/xlink" xmlns:svgjs="http://svgjs.com/svgjs" width="512" height="512" x="0" y="0" viewBox="0 0 512.005 512.005" style="enable-background:new 0 0 512 512" xml:space="preserve" class=""><g><path fill="#64b9fc" d="m63.005 388.252 426.81-155.346c1.428 12.59-2.383 25.739-11.727 35.888a45.408 45.408 0 0 0-8.515 48.277c.285.672.54 1.345.783 2.012 8.804 24.189-4.319 51.08-29.156 58.833a45.408 45.408 0 0 0-31.51 37.554c-2.267 17.559-14.189 31.312-29.561 36.906-7.852 2.858-16.613 3.586-25.441 1.603-8.66-1.943-17.483-1.274-25.489 1.64s-15.194 8.073-20.58 15.127c-5.488 7.194-12.667 12.268-20.519 15.126-15.371 5.595-33.344 2.723-46.368-9.271a45.408 45.408 0 0 0-48.277-8.515c-.672.285-1.345.541-2.012.783-24.188 8.804-51.079-4.319-58.833-29.156a45.408 45.408 0 0 0-37.554-31.51c-13.681-1.766-25.052-9.389-32.051-19.951z" data-original="#64b9fc" class=""></path><path fill="#31a7fb" d="m463.52 242.477-12.336 4.49L63.005 388.252c5.667 8.556 14.203 15.179 24.505 18.321l356.684-129.822a45.912 45.912 0 0 1-4.737 6.104 45.408 45.408 0 0 0-8.515 48.277c.285.672.541 1.345.783 2.012 8.804 24.189-4.319 51.08-29.156 58.833a45.408 45.408 0 0 0-31.51 37.554 45.176 45.176 0 0 1-11.864 25.217 44.944 44.944 0 0 0 20.935-2.372c15.371-5.595 27.294-19.347 29.561-36.906a45.407 45.407 0 0 1 31.51-37.554c24.836-7.753 37.96-34.644 29.156-58.833a41.63 41.63 0 0 0-.783-2.012 45.408 45.408 0 0 1 8.515-48.277c9.344-10.149 13.155-23.298 11.727-35.888z" data-original="#31a7fb" class=""></path><path fill="#64b9fc" d="M449.008 120.79 22.198 276.136c-1.427-12.59 2.383-25.739 11.727-35.888a45.408 45.408 0 0 0 8.515-48.277 39.65 39.65 0 0 1-.783-2.012c-8.804-24.189 4.319-51.08 29.156-58.833a45.408 45.408 0 0 0 31.51-37.554c2.267-17.559 14.189-31.312 29.561-36.907 7.852-2.858 16.613-3.586 25.441-1.603 8.66 1.943 17.483 1.274 25.489-1.64s15.194-8.073 20.58-15.127c16.221-21.27 47.21-23.983 66.887-5.855a45.408 45.408 0 0 0 48.277 8.515 40.616 40.616 0 0 1 2.012-.783c24.188-8.804 51.079 4.319 58.833 29.156a45.408 45.408 0 0 0 37.554 31.51c13.681 1.767 25.052 9.39 32.051 19.952z" data-original="#64b9fc" class=""></path><path fill="#31a7fb" d="m449.008 120.79-38.631 14.061c-6.999-10.562-18.37-18.185-32.052-19.954a45.41 45.41 0 0 1-37.555-31.51c-7.753-24.836-34.644-37.96-58.833-29.156a41.63 41.63 0 0 0-2.012.783 45.408 45.408 0 0 1-48.277-8.515 45.186 45.186 0 0 0-25.298-11.692c16.807-18.032 45.389-19.45 63.929-2.369a45.408 45.408 0 0 0 48.277 8.515 40.616 40.616 0 0 1 2.012-.783c24.188-8.804 51.079 4.319 58.833 29.156a45.408 45.408 0 0 0 37.554 31.51c13.683 1.769 25.054 9.392 32.053 19.954z" data-original="#31a7fb" class=""></path><circle cx="256.007" cy="254.521" r="186.9" fill="#1c96f9" data-original="#1c96f9" class=""></circle><path fill="#1785f8" d="M192.083 78.894a190.147 190.147 0 0 0-19.78 8.491c91.135-21.81 186.124 27.753 218.94 117.914a187.846 187.846 0 0 1 8.924 34.191L95.533 350.368a185.616 185.616 0 0 0 33.297 41.164l272.264-99.096c-7.632 60.561-44.776 115.453-101.774 143.923a189.87 189.87 0 0 0 20.61-6.21c96.997-35.304 147.008-142.554 111.704-239.551S289.08 43.59 192.083 78.894z" data-original="#1785f8" class=""></path><g fill="#f2eff2"><path d="m160.309 381.775 250.803-91.285c-13.982 49.051-50.488 90.941-102.08 109.719s-106.482 10.154-148.723-18.434zM351.704 127.267l-250.803 91.285c13.982-49.051 50.488-90.941 102.08-109.719s106.483-10.154 148.723 18.434z" fill="#f2eff2" data-original="#f2eff2" class=""></path></g><path fill="#fb4a59" d="M498.191 229.86 54.631 391.303c-4.979 1.812-10.485-.755-12.297-5.734l-34.246-94.09c-1.812-4.979.755-10.485 5.734-12.297l443.561-161.443c4.979-1.812 10.485.755 12.297 5.734l34.246 94.09c1.812 4.979-.756 10.485-5.735 12.297z" data-original="#fb4a59" class=""></path><path fill="#f82f40" d="m469.68 123.476 34.244 94.085a9.591 9.591 0 0 1-5.734 12.297l-34.746 12.646a9.59 9.59 0 0 0 5.734-12.297l-34.244-94.085a9.591 9.591 0 0 0-12.297-5.734l34.746-12.646a9.59 9.59 0 0 1 12.297 5.734z" data-original="#f82f40" class=""></path><path d="M152.866 380.856a7.499 7.499 0 0 0 3.24 7.131c22.083 14.945 47.696 24.698 74.071 28.203a169.803 169.803 0 0 0 22.357 1.473 173.08 173.08 0 0 0 59.064-10.405c26.007-9.466 49.561-25.197 68.113-45.494 17.952-19.639 31.304-43.573 38.613-69.217a7.501 7.501 0 0 0-9.779-9.104l-250.802 91.285a7.502 7.502 0 0 0-4.877 6.128zm246.145-77.98c-16.413 41.673-50.123 74.847-92.543 90.285-42.418 15.439-89.565 11.697-128.926-9.677zM355.908 121.056c-22.083-14.945-47.696-24.698-74.071-28.203-27.259-3.623-55.414-.533-81.421 8.933s-49.561 25.197-68.114 45.494c-17.951 19.638-31.304 43.573-38.613 69.217a7.503 7.503 0 0 0 9.778 9.104l250.804-91.285a7.501 7.501 0 0 0 1.637-13.26zm-242.905 85.11c16.413-41.674 50.123-74.847 92.542-90.285a156.678 156.678 0 0 1 53.594-9.425c26.106 0 52.079 6.475 75.332 19.102z" fill="#000000" data-original="#000000" class=""></path><path d="m510.973 214.998-34.246-94.09a16.987 16.987 0 0 0-8.839-9.646 16.97 16.97 0 0 0-13.071-.571l-3.164 1.152c-8.538-10.21-20.379-16.722-33.736-18.441-14.129-1.824-25.923-11.263-30.796-24.675a34.84 34.84 0 0 1-.555-1.634c-4.355-13.939-13.957-25.181-27.036-31.653-13.086-6.476-27.836-7.298-41.522-2.319-.767.278-1.559.582-2.295.889-.567.232-1.133.457-1.702.664-13.367 4.868-28.179 1.897-38.653-7.75-5.03-4.633-10.787-8.191-17.111-10.58a7.501 7.501 0 0 0-5.299 14.033c4.518 1.706 8.639 4.257 12.248 7.58 14.618 13.463 35.291 17.606 53.946 10.812a58.883 58.883 0 0 0 2.301-.896 38.971 38.971 0 0 1 1.688-.654c9.803-3.566 20.368-2.976 29.746 1.666 9.371 4.637 16.251 12.692 19.373 22.686.247.792.519 1.595.788 2.32 6.781 18.666 23.242 31.843 42.962 34.389 7.669.987 14.639 4.18 20.254 9.169l-31.742 11.553c-52.443-62.057-138.389-85.04-214.99-57.159C112.913 99.725 61.846 172.579 61.564 253.825l-31.745 11.554c1.098-7.432 4.384-14.358 9.622-20.045 13.467-14.611 17.61-35.283 10.813-53.948a61.72 61.72 0 0 0-.899-2.31 37.923 37.923 0 0 1-.651-1.679c-3.567-9.807-2.975-20.372 1.669-29.751 4.637-9.366 12.691-16.24 22.677-19.356l.113-.036a97.997 97.997 0 0 0 2.218-.756c18.665-6.793 31.839-23.257 34.383-42.971 1.819-14.127 11.278-25.937 24.681-30.817 6.789-2.465 14.135-2.924 21.241-1.331a52.814 52.814 0 0 0 29.694-1.91 52.838 52.838 0 0 0 23.98-17.632c3.758-4.929 8.495-8.752 14.081-11.361a7.5 7.5 0 0 0-6.35-13.59 53.079 53.079 0 0 0-19.656 15.854 37.869 37.869 0 0 1-17.188 12.635 37.855 37.855 0 0 1-21.28 1.368c-9.904-2.22-20.153-1.575-29.648 1.871-18.7 6.809-31.894 23.286-34.431 42.996-1.823 14.126-11.263 25.925-24.578 30.771-.58.205-1.187.41-1.785.607-13.91 4.357-25.128 13.944-31.594 27.002-6.48 13.087-7.305 27.838-2.321 41.538.279.767.582 1.558.885 2.28.233.569.457 1.137.665 1.707 4.87 13.373 1.901 28.183-7.75 38.653-9.124 9.906-14.01 22.506-13.993 35.815l-3.159 1.15a16.976 16.976 0 0 0-9.647 8.839 16.982 16.982 0 0 0-.571 13.07l13.08 35.937a7.502 7.502 0 0 0 7.048 4.937 7.5 7.5 0 0 0 7.047-10.067l-13.08-35.937c-.245-.673-.097-1.242.07-1.601s.508-.837 1.182-1.082l443.561-161.443c.673-.244 1.242-.098 1.601.069s.838.508 1.083 1.183l34.246 94.089a2.097 2.097 0 0 1-1.252 2.685l-101.479 36.935a7.5 7.5 0 0 0 5.131 14.095l36.061-13.125c-2.503 72.725-49.028 137.291-117.978 162.385a178.975 178.975 0 0 1-61.284 10.816c-50.088-.003-98.936-21.004-133.459-59.38L366 285.955a7.5 7.5 0 0 0-5.131-14.095L52.065 384.255a2.095 2.095 0 0 1-2.684-1.251l-9.124-25.068a7.5 7.5 0 0 0-14.096 5.131l9.125 25.068c2.524 6.935 9.095 11.248 16.08 11.248 1.937 0 3.907-.332 5.83-1.032l3.165-1.152c8.535 10.206 20.374 16.721 33.741 18.45 14.125 1.815 25.918 11.25 30.791 24.66.197.535.386 1.094.557 1.638 4.354 13.939 13.956 25.181 27.035 31.653 13.087 6.477 27.835 7.299 41.529 2.318a53.64 53.64 0 0 0 2.291-.888 45.569 45.569 0 0 1 1.701-.663c13.364-4.867 28.177-1.898 38.65 7.748 9.965 9.185 22.749 14.031 35.799 14.03a53.132 53.132 0 0 0 18.207-3.228 52.682 52.682 0 0 0 23.919-17.616 37.865 37.865 0 0 1 17.178-12.633 37.978 37.978 0 0 1 21.289-1.37c9.905 2.221 20.157 1.573 29.646-1.871 18.702-6.81 31.896-23.286 34.433-42.997 1.824-14.13 11.263-25.924 24.67-30.795a33.139 33.139 0 0 1 1.638-.556c13.939-4.354 25.181-13.956 31.653-27.035 6.477-13.088 7.3-27.836 2.321-41.52a50.895 50.895 0 0 0-.892-2.303 47.216 47.216 0 0 1-.662-1.698c-4.867-13.367-1.897-28.178 7.75-38.653 9.132-9.913 14.017-22.512 13.995-35.813l3.158-1.149c8.855-3.223 13.438-13.051 10.215-21.91zM194.652 85.939c68.943-25.096 146.083-5.541 194.75 48.562L76.674 248.325c2.502-72.725 49.028-137.292 117.978-162.386zm277.918 177.77c-13.463 14.618-17.605 35.29-10.812 53.946.274.755.57 1.509.896 2.301.233.561.451 1.129.654 1.689 3.566 9.804 2.975 20.367-1.666 29.746-4.638 9.371-12.693 16.25-22.68 19.369a49.76 49.76 0 0 0-2.327.791c-18.665 6.78-31.842 23.241-34.388 42.962-1.818 14.128-11.277 25.937-24.681 30.816-6.787 2.465-14.131 2.927-21.241 1.332a52.908 52.908 0 0 0-29.693 1.91 52.844 52.844 0 0 0-23.98 17.632 37.719 37.719 0 0 1-17.123 12.619c-13.4 4.884-28.233 1.917-38.711-7.739-14.617-13.462-35.288-17.604-53.946-10.812-.753.274-1.507.57-2.301.896-.563.235-1.134.452-1.688.654-9.805 3.565-20.368 2.975-29.747-1.666-9.37-4.638-16.25-12.693-19.372-22.689a48.939 48.939 0 0 0-.788-2.317c-6.784-18.672-23.246-31.845-42.957-34.377-7.673-.993-14.644-4.189-20.259-9.178l31.757-11.559c37.581 44.467 92.35 68.884 148.571 68.882 22.233 0 44.696-3.817 66.404-11.719 76.608-27.882 127.675-100.735 127.956-181.979l31.75-11.556c-1.096 7.427-4.384 14.354-9.628 20.046z" fill="#000000" data-original="#000000" class=""></path><path d="m120.844 298.369-3.927-10.788a16.494 16.494 0 0 0-8.584-9.367 16.49 16.49 0 0 0-12.693-.554l-18.897 6.878a7.5 7.5 0 0 0-4.483 9.613l17.515 48.122a7.502 7.502 0 0 0 7.048 4.937 7.5 7.5 0 0 0 7.047-10.067l-4.798-13.183 11.85-4.313c8.601-3.129 13.052-12.674 9.922-21.278zm-15.052 7.183-11.85 4.313-5.021-13.797 11.85-4.313a1.564 1.564 0 0 1 1.224.053c.274.128.64.389.827.903l3.927 10.787a1.606 1.606 0 0 1-.957 2.054zM170.421 287.629a16.493 16.493 0 0 0 .555-12.693l-2.259-6.207a16.493 16.493 0 0 0-8.584-9.368 16.494 16.494 0 0 0-12.693-.554l-18.897 6.878a7.5 7.5 0 0 0-4.482 9.613l17.515 48.122a7.505 7.505 0 0 0 7.048 4.937 7.5 7.5 0 0 0 7.047-10.067l-4.119-11.315 21.162 10.596a7.5 7.5 0 1 0 6.715-13.412l-17.002-8.514a16.48 16.48 0 0 0 7.994-8.016zm-13.594-6.339c-.128.273-.389.64-.903.827l-11.85 4.313-3.354-9.216 11.851-4.313c.515-.19.948-.075 1.223.053.274.128.64.389.828.904l2.259 6.206a1.58 1.58 0 0 1-.054 1.226zM299.107 240.791a16.491 16.491 0 0 0 .555-12.692l-2.259-6.208a16.496 16.496 0 0 0-8.584-9.368 16.496 16.496 0 0 0-12.694-.554l-18.897 6.878a7.503 7.503 0 0 0-4.482 9.613l17.516 48.122a7.503 7.503 0 0 0 7.049 4.937 7.5 7.5 0 0 0 7.046-10.067l-4.119-11.315 21.163 10.596a7.5 7.5 0 0 0 6.714-13.412l-17.002-8.514a16.48 16.48 0 0 0 7.994-8.016zm-13.594-6.339c-.127.273-.388.64-.903.827l-11.85 4.313-3.354-9.216 11.85-4.313c.515-.188.95-.075 1.224.053s.641.389.828.903l2.259 6.207a1.58 1.58 0 0 1-.054 1.226zM180.341 246.831a7.5 7.5 0 0 0-4.483 9.613l17.515 48.122a7.505 7.505 0 0 0 7.048 4.937 7.5 7.5 0 0 0 7.047-10.067l-17.515-48.122a7.5 7.5 0 0 0-9.612-4.483zM224.632 230.71l-10.958 3.989c-8.432 3.07-12.795 12.428-9.726 20.859l11.512 31.631a16.171 16.171 0 0 0 8.415 9.184 16.21 16.21 0 0 0 6.868 1.533c1.877 0 3.76-.329 5.576-.99l10.957-3.988a16.173 16.173 0 0 0 9.185-8.415 16.17 16.17 0 0 0 .543-12.445l-11.513-31.629c-3.068-8.433-12.423-12.794-20.859-9.729zm18.235 47.463c-.102.219-.309.51-.72.659l-10.958 3.988c-.41.151-.755.06-.974-.042a1.258 1.258 0 0 1-.66-.72l-11.513-31.631c-.24-.66.102-1.394.762-1.634l10.957-3.988a1.282 1.282 0 0 1 1.635.763l11.513 31.63c.149.411.06.757-.042.975zM309.027 199.993a7.5 7.5 0 0 0-4.482 9.613l17.515 48.122a7.502 7.502 0 0 0 9.613 4.483 7.5 7.5 0 0 0 4.482-9.613l-17.515-48.122a7.497 7.497 0 0 0-9.613-4.483zM370.439 185.622a7.501 7.501 0 0 0-9.613-4.482l-13.716 4.992-.009.003-.008.003-13.716 4.993a7.5 7.5 0 0 0-4.482 9.613 7.502 7.502 0 0 0 9.613 4.483l6.677-2.43 14.949 41.074a7.502 7.502 0 0 0 9.613 4.483 7.5 7.5 0 0 0 4.482-9.613l-14.949-41.074 6.677-2.43a7.502 7.502 0 0 0 4.482-9.615zM407.385 190.593c-1.783.65-3.713.564-5.433-.237s-3.024-2.226-3.674-4.01l-3.489-9.586a7.502 7.502 0 0 0-9.613-4.482 7.5 7.5 0 0 0-4.482 9.613l3.489 9.586a21.962 21.962 0 0 0 11.431 12.474 22.033 22.033 0 0 0 9.329 2.083c.027 0 .053-.003.08-.003l6.911 18.988a7.503 7.503 0 0 0 7.049 4.937 7.5 7.5 0 0 0 7.046-10.067l-6.919-19.011a22.005 22.005 0 0 0 5.879-7.618 21.959 21.959 0 0 0 .738-16.902l-3.489-9.587a7.497 7.497 0 0 0-9.613-4.482 7.5 7.5 0 0 0-4.482 9.613l3.489 9.587a7.06 7.06 0 0 1-.237 5.433 7.063 7.063 0 0 1-4.01 3.671zM286.736 377.875c-1.333 3.621.306 7.719 3.866 9.378a7.46 7.46 0 0 0 3.165.705 7.503 7.503 0 0 0 6.802-4.332l1.363-2.923 2.923 1.362a7.497 7.497 0 0 0 9.967-3.627c1.662-3.563.28-7.758-3.073-9.674 2.339-1.97 3.328-5.256 2.221-8.297a7.502 7.502 0 0 0-9.613-4.482l-3.036 1.105-.506-1.39a7.501 7.501 0 0 0-9.613-4.482 7.5 7.5 0 0 0-4.482 9.613l.506 1.39-3.035 1.105a7.5 7.5 0 0 0-4.482 9.613 7.496 7.496 0 0 0 7.027 4.936zM229.097 141.678c2.338-1.97 3.326-5.255 2.22-8.295a7.502 7.502 0 0 0-9.613-4.482l-3.036 1.105-.506-1.391a7.5 7.5 0 0 0-14.095 5.131l.506 1.39-3.035 1.105a7.5 7.5 0 0 0 2.547 14.548c-1.332 3.621.307 7.719 3.867 9.378a7.463 7.463 0 0 0 3.165.705 7.502 7.502 0 0 0 6.802-4.332l1.363-2.923 2.923 1.363a7.501 7.501 0 0 0 9.967-3.629c1.66-3.562.278-7.757-3.075-9.673zM157.512 163.277l-.094.034c-3.892 1.418-5.85 5.706-4.431 9.598 1.108 3.04 4.006 4.918 7.077 4.918.86 0 1.733-.147 2.585-.458a7.5 7.5 0 0 0-5.137-14.092zM180.509 154.906l-.093.033c-3.902 1.389-5.893 5.662-4.503 9.564 1.092 3.067 4.004 4.972 7.096 4.972a7.57 7.57 0 0 0 2.532-.438 7.5 7.5 0 1 0-5.032-14.131zM249.95 129.632l-.094.034c-3.892 1.418-5.85 5.706-4.431 9.598 1.108 3.04 4.006 4.918 7.077 4.918.86 0 1.733-.147 2.585-.458a7.499 7.499 0 0 0 4.477-9.615 7.497 7.497 0 0 0-9.614-4.477zM275.446 135.831c.846 0 1.704-.143 2.543-.442a7.5 7.5 0 0 0-5.055-14.123l-.093.033c-3.899 1.396-5.884 5.672-4.487 9.572 1.096 3.062 4.005 4.96 7.092 4.96zM234.129 373.616l-.093.033c-3.902 1.389-5.893 5.662-4.503 9.564 1.092 3.067 4.004 4.972 7.096 4.972a7.57 7.57 0 0 0 2.532-.438 7.5 7.5 0 1 0-5.032-14.131zM259.572 379.834a7.53 7.53 0 0 0 2.586-.458 7.499 7.499 0 0 0 4.477-9.615 7.495 7.495 0 0 0-9.615-4.477l-.093.034c-3.892 1.418-5.85 5.706-4.431 9.598 1.108 3.04 4.006 4.918 7.076 4.918zM329.067 354.541a7.53 7.53 0 0 0 2.52-.435 7.5 7.5 0 0 0 4.565-9.573 7.494 7.494 0 0 0-9.573-4.565l-.094.033c-3.904 1.383-5.901 5.652-4.519 9.557 1.089 3.073 4.005 4.983 7.101 4.983zM352.01 346.19a7.52 7.52 0 0 0 2.609-.467 7.498 7.498 0 0 0 4.444-9.63 7.498 7.498 0 0 0-9.63-4.444l-.093.034c-3.887 1.432-5.83 5.726-4.398 9.613 1.115 3.027 4.007 4.894 7.068 4.894z" fill="#000000" data-original="#000000" class=""></path></g></svg>