<svg xmlns="http://www.w3.org/2000/svg" version="1.1" xmlns:xlink="http://www.w3.org/1999/xlink" xmlns:svgjs="http://svgjs.com/svgjs" width="512" height="512" x="0" y="0" viewBox="0 0 512 512" style="enable-background:new 0 0 512 512" xml:space="preserve" class=""><g><g fill="#ff5c42"><path d="M12.36 443.316c-2.594-2.597-2.493-7.27 1.144-10.902l21.492-21.496c13.707-13.703 30.941-18.066 48.387-.621l.52.52c17.445 17.44 12.874 35.3-1.454 49.632l-10.281 10.278 22.43 22.43c3.324 3.323.933 9.03-3.118 13.081-4.046 4.051-9.757 6.438-13.082 3.117zm25.44-6.957 21.91 21.91 10.278-10.28c5.817-5.813 6.024-12.669-1.039-19.727l-1.14-1.145c-7.059-7.058-13.914-6.851-19.73-1.039zM76.633 379.043c-2.594-2.598-2.91-6.852.101-9.863l21.496-21.492c14.227-14.227 30.84-20.25 47.762-3.325 11.63 11.63 12.98 23.57 8.516 33.64l35.617 10.282c1.04.207 1.867.832 2.387 1.352 4.05 4.047 3.011 13.808-1.766 18.586-2.074 2.074-4.879 3.215-8.203 2.18l-41.844-13.395-6.855 6.851 25.023 25.028c3.324 3.32.938 9.031-3.113 13.082-4.05 4.047-9.762 6.437-13.082 3.113zm25.437-6.957 19.317 19.312 10.277-10.277c5.816-5.816 6.957-11.734-.309-19.004-7.27-7.265-13.187-6.125-19.003-.308zM142.465 313.215c-3.426-3.43-.832-8.934 3.219-12.98 4.046-4.051 9.55-6.65 12.976-3.22l66.04 66.04c3.323 3.32.933 9.03-3.114 13.082-4.05 4.05-9.762 6.437-13.082 3.117zM221.379 328.578l-27.52-27.515c-17.855-17.86-13.39-35.614.938-49.946 14.328-14.328 32.187-18.894 50.047-1.035l27.515 27.516c17.86 17.859 13.29 35.718-1.039 50.047-14.328 14.332-32.082 18.793-49.941.933zm7.266-62.3c-7.165-7.165-13.915-6.852-19.727-1.036-5.816 5.813-6.023 12.461 1.14 19.625l27.516 27.516c7.164 7.164 13.813 6.957 19.625 1.14 5.817-5.812 6.13-12.562-1.039-19.726zm0 0" fill="#ff5c42" data-original="#ff5c42"></path></g><path fill="#d9311c" d="M240.793 214.883c-2.598-2.598-2.906-6.856.105-9.863l21.493-21.497c14.226-14.222 30.84-20.246 47.761-3.32 11.633 11.629 12.98 23.57 8.516 33.64l35.617 10.282c1.04.207 1.867.828 2.387 1.352 4.05 4.046 3.012 13.808-1.766 18.582-2.074 2.078-4.879 3.218-8.203 2.183l-41.844-13.394-6.855 6.851 25.027 25.024c3.32 3.324.934 9.035-3.117 13.086-4.05 4.046-9.762 6.433-13.082 3.113zm25.441-6.957 19.313 19.312 10.277-10.277c5.817-5.816 6.957-11.734-.308-19.004-7.27-7.266-13.188-6.125-19.004-.309zM306.625 149.05c-3.426-3.425-.832-8.929 3.219-12.98 4.047-4.047 9.55-6.644 12.976-3.215l66.04 66.04c3.324 3.32.937 9.03-3.114 13.082-4.05 4.046-9.762 6.437-13.082 3.113zM379.309 66.61c3.425-3.426 8.617-1.145 12.043 2.28 3.945 3.95 5.609 9.141 2.492 12.255l-14.328 14.332 56.382 56.378c3.32 3.325.934 9.036-3.117 13.083-4.047 4.05-9.761 6.44-13.082 3.117l-56.383-56.383L348.988 126c-3.117 3.117-8.304 1.457-12.254-2.488-3.425-3.43-5.71-8.621-2.285-12.047zM457.598 78.031c-.621-.625-1.352-.933-1.868-1.039l-57.109-14.12c-.625-.208-1.039-.626-1.351-.935-3.84-3.843-.102-13.187 4.363-17.652 2.597-2.597 4.566-2.492 7.683-1.664l41.22 12.149-12.25-41.118c-.934-3.011-.934-5.09 1.66-7.683 4.464-4.465 13.812-8.203 17.652-4.36.312.313.726.727.933 1.348l14.227 57.008c.101.52.414 1.246 1.039 1.867l26.062 26.063c3.32 3.324.934 9.035-3.117 13.082-4.05 4.05-9.762 6.437-13.082 3.117zm0 0" data-original="#d9311c" class=""></path><path fill="#ff5c42" d="M294.871 67.55a14.89 14.89 0 0 0-7.976-4.081c-.07-.016-.122-.028-.196-.04A196.371 196.371 0 0 0 256 61C148.477 61 61 148.477 61 256c0 11.281.988 22.652 2.941 33.797.012.078.032.14.043.215a14.942 14.942 0 0 0 4.211 7.89 14.946 14.946 0 0 0 10.52 4.309c3.879 0 7.758-1.496 10.691-4.48L295.04 88.765c5.813-5.907 5.734-15.403-.168-21.215zm-44.215 23.548L91.036 253.305c1.413-87.961 72-159.407 159.62-162.207zm0 0" data-original="#ff5c42"></path><path fill="#d9311c" d="M286.895 63.469c-.07-.016-.122-.028-.196-.04A196.371 196.371 0 0 0 256 61c-53.762 0-102.512 21.867-137.82 57.18l21.215 21.215c28.703-28.7 67.89-46.91 111.261-48.297L171.52 171.52l21.21 21.21L295.04 88.766c5.812-5.907 5.733-15.403-.169-21.215a14.89 14.89 0 0 0-7.976-4.082zm0 0" data-original="#d9311c" class=""></path><path fill="#ff5c42" d="M450.684 244.836c-.012-.164-.024-.3-.036-.441-.007-.055-.007-.11-.015-.165a5.978 5.978 0 0 0-.094-.667c-.441-3.09-1.824-6.07-4.195-8.454-5.84-5.875-15.34-5.898-21.215-.062l-191.05 189.95c-5.876 5.843-5.903 15.339-.063 21.214a14.95 14.95 0 0 0 9.39 4.363c.106.012.196.024.313.031 4.191.262 8.32.395 12.281.395 107.523 0 195-87.477 195-195 0-3.684-.105-7.438-.316-11.164zM282.859 418.8l135.786-135c-11.766 69.058-66.594 123.625-135.786 135zm0 0" data-original="#ff5c42"></path><path fill="#d9311c" d="M450.684 244.836c-.012-.164-.024-.3-.036-.441-.007-.055-.007-.11-.015-.165a5.978 5.978 0 0 0-.094-.667c-.441-3.09-1.824-6.07-4.195-8.454-5.84-5.875-15.34-5.898-21.215-.062l-95.316 94.766 21.214 21.214 67.618-67.226c-5.856 34.37-22.383 65.152-46.036 88.804l21.211 21.215C429.133 358.512 451 309.762 451 256c0-3.684-.105-7.438-.316-11.164zm0 0" data-original="#d9311c" class=""></path><path fill="#ff5c42" d="M27.945 349.125c-6.234 0-12.058-3.918-14.191-10.145C4.629 312.332 0 284.414 0 256c0-68.379 26.629-132.668 74.98-181.02C123.332 26.63 187.621 0 256 0c28.11 0 55.762 4.54 82.18 13.488 7.847 2.66 12.054 11.176 9.394 19.024-2.66 7.843-11.18 12.047-19.02 9.39C305.239 34.004 280.829 30 256 30c-60.367 0-117.121 23.508-159.805 66.195C53.508 138.88 30 195.633 30 256c0 25.098 4.082 49.746 12.137 73.262 2.683 7.836-1.492 16.367-9.332 19.05-1.61.551-3.25.813-4.86.813zm0 0" data-original="#ff5c42"></path><path fill="#d9311c" d="M328.555 41.902c7.84 2.657 16.36-1.547 19.02-9.394 2.655-7.848-1.548-16.36-9.395-19.02C311.762 4.54 284.11 0 256 0 187.621 0 123.332 26.629 74.98 74.98l21.215 21.215C138.88 53.508 195.633 30 256 30c24.828 0 49.238 4.004 72.555 11.902zm0 0" data-original="#d9311c" class=""></path><path fill="#ff5c42" d="M256 512c-22.52 0-44.883-2.934-66.465-8.723-8-2.144-12.75-10.37-10.601-18.375 2.144-8 10.375-12.746 18.37-10.601C216.356 479.41 236.106 482 256 482c60.367 0 117.121-23.508 159.805-66.195C458.492 373.12 482 316.367 482 256c0-20.809-2.84-41.453-8.441-61.355-2.243-7.977 2.402-16.258 10.375-18.504 7.976-2.243 16.257 2.402 18.503 10.375A256.554 256.554 0 0 1 512 256c0 68.379-26.629 132.668-74.98 181.02C388.668 485.37 324.379 512 256 512zm0 0" data-original="#ff5c42"></path><path fill="#d9311c" d="M502.438 186.516c-2.247-7.973-10.528-12.618-18.504-10.375-7.973 2.246-12.618 10.527-10.375 18.504C479.16 214.547 482 235.19 482 256c0 60.367-23.508 117.121-66.195 159.805l21.215 21.215C485.37 388.668 512 324.379 512 256c0-23.559-3.219-46.934-9.563-69.484zm0 0" data-original="#d9311c" class=""></path></g></svg>