<svg xmlns="http://www.w3.org/2000/svg" version="1.1" xmlns:xlink="http://www.w3.org/1999/xlink" xmlns:svgjs="http://svgjs.com/svgjs" width="512" height="512" x="0" y="0" viewBox="0 0 511 512" style="enable-background:new 0 0 512 512" xml:space="preserve" class=""><g><path d="M288.027 64.34a9.989 9.989 0 0 0-.703-.164c-.097-.02-.195-.04-.293-.055l-.246-.047a196.257 196.257 0 0 0-30.656-2.426C148.762 61.648 61.41 149 61.41 256.368c0 11.265.988 22.62 2.938 33.75.011.077.03.152.047.23.023.129.054.254.082.382l.023.094a14.889 14.889 0 0 0 4.094 7.387 14.934 14.934 0 0 0 10.508 4.3c3.87 0 7.746-1.491 10.675-4.472L295.113 89.375c5.805-5.898 5.727-15.379-.168-21.184a14.937 14.937 0 0 0-6.918-3.851zm-37.23 27.363L91.402 253.68c1.414-87.836 71.895-159.18 159.395-161.977zM243.617 450.668c.086.008.16.02.25.027 4.184.262 8.309.395 12.262.395 107.367 0 194.719-87.352 194.719-194.719 0-3.68-.106-7.43-.317-11.148 0 0-.011.02-.015.023-.196-3.539-1.621-7.023-4.317-9.734-5.836-5.867-15.316-5.895-21.183-.063L234.242 425.121c-5.867 5.836-5.894 15.317-.062 21.184a14.916 14.916 0 0 0 9.437 4.363zm39.336-31.73 135.586-134.81c-11.75 68.962-66.496 123.446-135.586 134.81zm0 0" fill="#000000" data-original="#000000" class=""></path><path d="M28.402 349.36c1.61 0 3.246-.262 4.856-.813 7.824-2.68 11.996-11.2 9.316-19.024-8.043-23.48-12.12-48.093-12.12-73.156 0-60.281 23.476-116.949 66.1-159.574s99.294-66.098 159.575-66.098c24.793 0 49.168 3.996 72.45 11.883 7.831 2.652 16.335-1.543 18.991-9.379 2.657-7.836-1.543-16.34-9.379-18.992C311.81 5.27 284.2.738 256.13.738c-68.281 0-132.477 26.59-180.758 74.871C27.09 123.895.5 188.086.5 256.367c0 28.375 4.621 56.254 13.734 82.863 2.13 6.22 7.942 10.13 14.168 10.13zM502.21 186.984c-2.241-7.96-10.51-12.597-18.476-10.359-7.96 2.242-12.601 10.512-10.359 18.477 5.594 19.875 8.43 40.488 8.43 61.265 0 60.281-23.477 116.953-66.102 159.578-42.621 42.625-99.293 66.098-159.574 66.098-19.867 0-39.586-2.586-58.61-7.688-7.984-2.14-16.203 2.598-18.347 10.586-2.14 7.993 2.598 16.207 10.59 18.348 21.55 5.781 43.883 8.711 66.367 8.711 68.281 0 132.476-26.59 180.762-74.871 48.28-48.285 74.87-112.48 74.87-180.762 0-23.52-3.214-46.863-9.55-69.383zM72.54 469.813l10.272-10.274c14.325-14.324 18.895-32.18 1.454-49.617l-.52-.52c-17.437-17.437-34.668-13.078-48.367.625l-21.484 21.485c-3.633 3.633-3.739 8.3-1.145 10.898l66.016 66.016c3.32 3.32 9.027.933 13.078-3.113 4.047-4.051 6.433-9.758 3.113-13.079zm-12.458-12.454L38.18 435.457l10.277-10.277c5.813-5.813 12.664-6.02 19.723 1.039l1.14 1.14c7.059 7.059 6.852 13.91 1.04 19.723zM134.086 403.074l6.851-6.851 41.833 13.39c3.32 1.04 6.12-.101 8.199-2.18 4.773-4.773 5.812-14.53 1.765-18.578-.52-.52-1.351-1.144-2.386-1.351l-35.602-10.277c4.461-10.067 3.113-22.004-8.512-33.63-16.922-16.917-33.527-10.898-47.75 3.325L77 368.406c-3.012 3.012-2.7 7.266-.105 9.86l66.015 66.015c3.32 3.324 9.028.934 13.078-3.113 4.047-4.05 6.434-9.758 3.114-13.078zm-12.453-12.457-19.309-19.304 10.278-10.278c5.812-5.808 11.73-6.953 18.992.313 7.265 7.265 6.125 13.183.312 18.996zM208.613 378.578c3.32 3.324 9.028.938 13.078-3.11 4.047-4.05 6.438-9.757 3.114-13.081l-66.016-66.016c-3.426-3.426-8.926-.828-12.973 3.219-4.05 4.05-6.644 9.55-3.218 12.976zM271.305 327.098c14.324-14.325 18.89-32.176 1.039-50.032l-27.508-27.504c-17.852-17.855-35.707-13.289-50.031 1.036-14.325 14.324-18.785 32.074-.934 49.925l27.508 27.508c17.851 17.856 35.601 13.39 49.926-.933zm-61.239-42.762c-7.164-7.164-6.957-13.809-1.144-19.621s12.558-6.125 19.723 1.039l27.503 27.508c7.164 7.16 6.852 13.906 1.04 19.718s-12.458 6.02-19.618-1.14zM262.273 183.133l-21.488 21.488c-3.008 3.008-2.7 7.262-.105 9.86l66.015 66.011c3.325 3.324 9.032.938 13.078-3.11 4.051-4.05 6.438-9.757 3.114-13.081l-25.016-25.016 6.852-6.847 41.832 13.39c3.32 1.035 6.12-.105 8.199-2.183 4.773-4.774 5.812-14.532 1.766-18.579-.52-.52-1.348-1.14-2.387-1.347L318.53 213.44c4.461-10.07 3.114-22.003-8.511-33.632-16.918-16.914-33.528-10.895-47.747 3.324zm33.422 33.422-10.277 10.277-19.305-19.309 10.278-10.273c5.808-5.813 11.726-6.957 18.992.313 7.265 7.265 6.125 13.18.312 18.992zM385.477 211.68c4.05-4.051 6.437-9.758 3.117-13.082l-66.016-66.012c-3.426-3.426-8.926-.832-12.976 3.219-4.047 4.047-6.641 9.547-3.22 12.972l66.016 66.016c3.325 3.32 9.032.934 13.079-3.113zM336.379 123.348c3.945 3.945 9.137 5.605 12.25 2.492l14.324-14.324 56.363 56.359c3.32 3.324 9.028.938 13.079-3.113 4.046-4.047 6.433-9.754 3.113-13.078l-56.363-56.36 14.328-14.328c3.113-3.113 1.449-8.3-2.493-12.246-3.425-3.426-8.617-5.707-12.042-2.281l-44.84 44.84c-3.426 3.425-1.141 8.613 2.28 12.039zM398.137 62.84l57.09 14.113c.52.106 1.246.418 1.867 1.04l26.054 26.05c3.32 3.324 9.032.937 13.079-3.113 4.05-4.047 6.437-9.754 3.113-13.078L473.285 61.8c-.62-.625-.933-1.352-1.035-1.867L458.027 2.945c-.207-.62-.62-1.039-.933-1.347-3.84-3.84-13.184-.106-17.645 4.359-2.597 2.594-2.597 4.672-1.66 7.68l12.25 41.105-41.21-12.144c-3.114-.832-5.087-.934-7.68 1.66-4.465 4.465-8.2 13.804-4.36 17.644.309.313.727.727 1.348.938zm0 0" fill="#000000" data-original="#000000" class=""></path></g></svg>